<svg height='100px' width='100px'  fill="#000000" xmlns="http://www.w3.org/2000/svg" xmlns:xlink="http://www.w3.org/1999/xlink" version="1.1" x="0px" y="0px" viewBox="0 0 100 100" enable-background="new 0 0 100 100" xml:space="preserve"><g><path d="M98.602,57.127c-0.436-0.77-1.412-1.038-2.182-0.599l-5.572,3.055H73.439l-2.14-2.565l-2.661,3.315l-5.143-3.006   l0.004-6.933h2.186v5.726l2.496,1.56l5.45-7.821l-14.5-2.913l-1.483,2.299l-5.537-0.006l0.016,4.926   c-0.695,0.104-1.439,0.29-2.173,0.604c-2.84,1.218-3.525,3.459-3.594,3.709c-0.197,0.724,0.224,1.457,0.942,1.668   c0.127,0.037,0.254,0.054,0.381,0.054c0.588,0,1.135-0.386,1.321-0.972c0.016-0.051,0.407-1.236,2.033-1.935   c0.834-0.356,1.701-0.473,2.42-0.498l8.957,5.417v7.943c0,0.632,1.281,1.554,2.048,1.828l-4.567,8.188   c-0.613,1.411-0.389,3.067,1.269,3.805c2.271,0.734,3.515-1.023,4.485-2.664l5.408-9.328h9.379l-4.66,7.837   c-0.778,1.312-0.35,3.018,0.957,3.796c1.313,0.779,3.009,0.352,3.787-0.959l5.004-8.45l-0.006,7.104   c0,1.525,1.238,2.757,2.762,2.757c1.525,0,2.762-1.23,2.762-2.757V63.176l6.962-3.869C98.77,58.865,99.034,57.895,98.602,57.127z    M60.773,54.191c-0.771,0-1.396-0.625-1.396-1.396s0.625-1.4,1.396-1.4c0.773,0,1.398,0.629,1.398,1.4   C62.173,53.566,61.548,54.191,60.773,54.191z"></path><polygon points="90.926,57.627 89.706,56.488 93.141,52.809 94.359,53.946  "></polygon><polygon points="93.242,65.393 92.855,63.77 97.518,62.666 97.902,64.289  "></polygon><path d="M55.736,39.815l-1.061-0.929C47.467,32.58,40.012,26.059,40.024,19.2c0.004-4.314,3.665-7.694,8.332-7.694   c3.466,0.007,5.75,1.946,7.382,4.162c1.604-2.143,3.941-4.154,7.433-4.162c4.714,0,8.265,3.308,8.274,7.693   c0.01,6.859-7.441,13.38-14.647,19.687L55.736,39.815L55.736,39.815z M48.365,14.565c-2.952,0-5.174,1.995-5.177,4.639   c-0.008,5.208,6.203,10.917,12.548,16.483c6.345-5.567,12.554-11.276,12.547-16.483c-0.006-2.644-2.196-4.639-5.096-4.639   c-2.357,0.005-4.172,1.419-6.071,4.729l-1.384,2.407l-1.383-2.408C52.427,15.94,50.691,14.571,48.365,14.565L48.365,14.565z"></path></g><g><path d="M46.934,51.214c3.469-1.753,4.857-5.989,3.107-9.453c-1.738-3.455-5.974-4.844-9.45-3.088   c-3.459,1.763-4.843,5.99-3.101,9.447C39.249,51.581,43.481,52.975,46.934,51.214z"></path><path d="M39.289,56.604c0,0,0.082-5.52-5.66-8.835c-1.732-1-5.01-2.396-11.725-1.409c-8.89,1.305-14.145,7.046-15.327,8.439   c-2.273,2.128-2.807,5.63-1.093,8.371c0.334,0.526,0.745,0.968,1.186,1.364c0.052,0.07,0.069,0.156,0.128,0.217l12.056,11.641H4.7   c-1.954,0-3.541,1.582-3.541,3.537c0,1.961,1.587,3.543,3.541,3.543h22.201c1.404,0,2.668-0.777,3.361-2.256   c0.883-1.883-0.3-4.072-0.707-4.721l-9.734-15.643c1.167-0.691,2.717-1.496,4.515-1.943c3.811-0.944,6.816-0.732,8.072-0.571   v21.491c0,1.898,1.537,3.436,3.434,3.436c1.905,0,3.441-1.537,3.441-3.436V56.605L39.289,56.604z"></path></g></svg>