<svg height='100px' width='100px'  fill="#000000" xmlns="http://www.w3.org/2000/svg" xmlns:xlink="http://www.w3.org/1999/xlink" version="1.1" x="0px" y="0px" viewBox="0 0 145.664 235.502" style="enable-background:new 0 0 145.664 235.502;" xml:space="preserve"><g><path d="M71.255,24.605c1.054-11.041-6.19-21.43-17.29-24.014c-12.1-2.818-24.193,4.707-27.012,16.805   c-2.025,8.699,1.296,17.396,7.821,22.643c0.058-0.047,0.112-0.092,0.171-0.139C42.891,33.57,55.337,26.174,71.255,24.605z"></path><path d="M23.62,67.765c1.38,0.945,2.952,1.397,4.507,1.397c2.553,0,5.062-1.219,6.612-3.484l-0.001-0.002   c0.275-0.406,4.671-6.502,12.128-12.25c7.529-5.809,17.855-11.143,30.461-11.135c5.367,0.002,11.221,0.943,17.688,3.35   c4.139,1.541,8.746-0.564,10.288-4.705c1.543-4.141-0.563-8.746-4.704-10.287c-8.166-3.047-16-4.363-23.273-4.357   c-17.816,0.012-31.815,7.75-41.136,15.174c-9.362,7.463-14.358,14.754-14.661,15.18C19.037,60.293,19.972,65.271,23.62,67.765z"></path><path d="M102.976,193.566c0.156-0.152,0.319-0.311,0.454-0.449c5.486,5.578,13.213,10.805,23.955,13.32   c2.294,0.535,4.579-0.891,5.105-3.184c0.533-2.285-0.889-4.576-3.18-5.105c-11.385-2.609-18.693-9.004-23.238-14.973   c2.499-19.713-14.759-18.769-16.08-39.766c-4.589-1.916-8.272-4.102-11.188-6.25c-1.968-0.953-4.076-2.088-6.293-3.445   l-30.503-22.285c-1.714-1.252-3.954-1.242-5.641-0.164c0.161-14.148,3.583-28.953,5.777-40.074   c0.868-0.561,1.646-1.291,2.266-2.197h0.001c0.323-0.453,3.203-4.225,8.547-7.742c5.376-3.525,13.071-6.869,23.83-6.885   c6.274,0.002,13.642,1.152,22.285,4.293c4.15,1.512,8.742-0.631,10.253-4.781c1.354-3.723-0.233-7.791-3.568-9.683   c-1.862,2.435-4.792,3.949-7.952,3.949c-1.191,0-2.364-0.211-3.488-0.631c-5.826-2.166-11.384-3.221-16.992-3.223   c-10.193,0-20.023,3.605-29.238,10.719c-7.39,5.693-11.655,11.73-11.694,11.789c-1.872,2.736-4.961,4.365-8.267,4.365   c-2.016,0-3.966-0.605-5.635-1.748c-2.206-1.506-3.693-3.783-4.186-6.408c-0.493-2.625,0.066-5.287,1.575-7.492   c0.941-1.346,3.598-4.941,7.981-9.305c-7.826,0.357-16.861,5.635-20.982,17.619c-6.805,20.174-8.268,33.305-5.682,55.52   c1.985,10.217,7.155,14.611,13.01,16.434c2.157,5.381,7.048,19.799,7.028,39.381c-0.004,12.594-1.978,27.332-7.959,43.494   c-2.397,6.475,0.907,13.664,7.38,16.062c1.432,0.529,2.899,0.781,4.342,0.781c5.08,0,9.855-3.119,11.722-8.16v-0.002   c7.096-19.148,9.52-36.957,9.516-52.176c-0.025-24.672-6.256-42.506-9.184-49.557c0.012-1.111-0.021-2.33-0.1-3.672   c-0.077-0.572-0.125-1.156-0.187-1.734l22.67,22.639c-1.309,3.123-2.719,11.572-1.74,16.141   c2.471,11.488,23.041,25.41,23.357,26.061c-1.543,6.068,0.6,49.238,8.75,49.555c8.15,0.315,3.537-32.697,4.153-33.074   C98.158,198.916,101.049,196.269,102.976,193.566z"></path><path d="M92.99,140.304c5.279-3.004,11.891-9.336,12.595-16.814c4.138-0.662,7.264-2.215,8.381-7.33   c0.938-4.301-1.385-8.383-2.539-6.15c-3.31,6.389-8.631,4.727-8.848,4.574c-0.264-0.186-5.975-1.678-8.656-5.754   c-1.889-2.875-6.037-11.185-10.021-10.168c-4.03,1.031-4.748,1.715-6.423,4.012c-2.396,3.287,1.551,9.016,1.846,13.535   c0.139,2.078-3.154,7.664-5.312,10.828c0.666,0.881,1.581,1.975,2.807,3.191C79.949,133.338,85.059,137.23,92.99,140.304z    M92.577,113.963c1.748-0.402,3.493,0.691,3.894,2.441c0.4,1.748-0.691,3.492-2.441,3.893c-1.75,0.402-3.492-0.691-3.895-2.439   C89.734,116.107,90.826,114.365,92.577,113.963z"></path><path d="M139.982,199.42c0.007,0,0.013,0,0.02,0c0.544,0,0.989-0.438,0.998-0.98c0.002-0.084,0.004-0.172,0.004-0.27   c0.006-3.023-1.577-5.113-3.079-6.338c-1.509-1.24-2.965-1.723-3.033-1.75c-0.525-0.174-1.091,0.107-1.267,0.633   c-0.174,0.523,0.108,1.09,0.634,1.266h-0.002c0.002,0,0.263,0.086,0.721,0.314c1.412,0.711,4.044,2.467,4.027,5.875   c0,0.064-0.002,0.145-0.002,0.232C138.991,198.955,139.429,199.412,139.982,199.42z"></path><path d="M144.576,199.002c0.021,0.002,0.042,0.002,0.062,0.002c0.524,0,0.963-0.412,0.996-0.941c0.019-0.369,0.03-0.729,0.03-1.078   c0.025-5.246-2.484-8.309-4.965-9.836c-2.474-1.547-4.86-1.73-4.949-1.742c-0.551-0.045-1.032,0.365-1.077,0.916   c-0.044,0.551,0.367,1.033,0.918,1.08v-0.004c0,0,0.46,0.035,1.231,0.238c2.351,0.682,6.809,2.498,6.843,9.348   c0,0.309-0.011,0.629-0.03,0.963C143.604,198.498,144.026,198.97,144.576,199.002z"></path><path d="M124.941,211.412c-0.431-0.346-1.062-0.277-1.406,0.152c-0.346,0.432-0.278,1.063,0.153,1.408   c2.128,1.717,4.195,2.375,5.992,2.375c0.006,0,0.012,0,0.018,0c3.898-0.035,6.189-2.828,6.27-2.904   c0.355-0.422,0.302-1.053-0.121-1.406c-0.423-0.356-1.053-0.303-1.408,0.121c0,0-0.089,0.105-0.308,0.311   c-0.667,0.637-2.306,1.889-4.434,1.879C128.374,213.341,126.797,212.898,124.941,211.412z"></path><path d="M119.958,217.187c3.174,2.027,6.329,2.723,9.086,2.721c5.554-0.012,9.475-2.725,9.563-2.777   c0.455-0.314,0.569-0.936,0.257-1.389c-0.312-0.457-0.935-0.572-1.389-0.258v-0.002c-0.002,0-0.189,0.133-0.595,0.359   c-1.218,0.682-4.177,2.072-7.835,2.066c-2.428-0.002-5.165-0.594-8.011-2.408c-0.465-0.297-1.084-0.162-1.381,0.305   C119.355,216.269,119.493,216.886,119.958,217.187z"></path></g></svg>