<svg height='100px' width='100px'  fill="#000000" xmlns="http://www.w3.org/2000/svg" xmlns:xlink="http://www.w3.org/1999/xlink" version="1.1" x="0px" y="0px" viewBox="0 0 100 100" enable-background="new 0 0 100 100" xml:space="preserve"><path d="M80.98,30.667c0.387-3.249,3.636-3.862,3.636-3.862c-0.818,2.726,0.5,5.225,0.5,5.225c4.499,2,3.635,5.089,6.588,6.634  c2.954,1.544,4.363,1.181,3.545,3.226c-0.817,2.045-1.045,1.999-5.498,1.954c-4.453-0.046-3.681,1.136-8.771,3.862  c-5.088,2.727-5.36,7.726-1.271,8.405c4.089,0.682,7.36,0.5,8.542,5.953c1.181,5.453-2.249,3.658-3.203,0.523  c-0.954-3.137-9.542-2.045-11.587-1.908c-2.044,0.135-2.93-1.979-2.93-1.979c-6.09,4.363-10.452,3.271-19.63,2.09  c-9.179-1.18-7.77-4.951-17.222,1.273c-9.451,6.225-20.265,2.59-20.265,2.59c-1.09,3.68-2.726,6.816-5.952,8.543  s-3.953-0.5-1.408-2.955c2.544-2.453,3.816-6.77,4.271-8.314c0.453-1.545,1.727-1.59,1.727-1.59  c6.134,0.205,8.724-4.771,10.803-6.85c2.078-2.079,6.872-7.646,0.42-3.329c-6.452,4.317-18.175,3.907-18.175,3.907  c8.179-5.906,11.45-10.631,16.357-10.541s10.178,1.271,10.178,1.271s9.814,2.182,21.81-0.544c11.996-2.726,14.54-7.815,24.174-9.27  c0,0-0.817-5.316,1.362-8.792L80.98,30.667z"></path></svg>