<svg height='100px' width='100px'  fill="#000000" xmlns="http://www.w3.org/2000/svg" xmlns:xlink="http://www.w3.org/1999/xlink" version="1.1" x="0px" y="0px" viewBox="0 0 66 66" enable-background="new 0 0 66 66" xml:space="preserve"><g><path d="M14.5,52.6c0.4,0.6,1,0.6,1.3,0.5c0.1-0.6,0.3-1.2,0.6-1.7c0.5-1.1,3.3-7.6,5.9-9.8   c0.1-0.6,0.3-1.2,0.6-1.7c-0.1-0.4-0.1-0.9,0.2-1.3l1.9-4.8c0.1-0.7,0.4-1.6,1.1-2.5c-0.5-2.1,0.3-2.9,0.3-2.9   c0.5,0,1.7-0.9,1.7-0.9c0.8,0,1.5-0.9,1.5-0.9c0.7-0.7-0.2-1.2-0.2-1.2c-0.4-0.8-0.6-0.1-0.6-0.1h-0.9c0.8-0.2,1.6-1.8,1.6-1.8   c0.4-0.7-0.3-1.9-0.3-1.9c-0.6-0.4-2.4,0.7-2.4,0.7c-1.3,0.7-2.3-0.1-2.3-0.1c-4.6,0.5-4.9,4.1-4.9,4.1l-2,5c-0.4,0.6,0.2,1,0.2,1   c-0.6,0.2-1,2.1-1,2.1c-2.7,1.8-6,9.7-6,9.7c-1.1,1.5-0.4,4.3-0.4,4.3c-0.8,0.5-2.6,0.1-2.6,0.1c-4.8-1.3-6.7-0.2-6.7-0.2   c-1.8,1,4.4,1.3,4.4,1.3l5.6,0.8C8.1,52.8,14.5,52.6,14.5,52.6z"></path><path d="M65,54.3c-0.3-1.6-1.8-2.7-3.4-2.3l-2.2,0.4l-0.1-9.4c-1.2,2.1-3.3,3.4-5.8,3.5l0.2,9.5   c0,0.9,0.4,1.7,1.1,2.2c0.6,0.5,1.4,0.8,2.4,0.6l5.6-1.1C64.2,57.4,65.2,55.9,65,54.3z"></path><path d="M35.7,33.2c-0.4-0.8-0.6-0.1-0.6-0.1h-0.9c0.8-0.2,1.6-1.8,1.6-1.8c0.3-0.7-0.3-1.9-0.3-1.9   c-0.6-0.4-2.4,0.7-2.4,0.7c-1.3,0.7-2.3-0.1-2.3-0.1c-4.6,0.5-4.9,4.1-4.9,4.1l-2,5c-0.4,0.6,0.2,1,0.2,1c-0.6,0.2-1,2-1,2   c-2.7,1.8-6,9.7-6,9.7c-1.1,1.5-0.4,4.3-0.4,4.3c-0.8,0.5-2.6,0.1-2.6,0.1c-4.8-1.3-6.7-0.2-6.7-0.2c-1.8,1,4.3,1.3,4.3,1.3   l5.6,0.8c-3.1,2.5,3.2,2.3,3.2,2.3c0.6,0.8,1.5,0.5,1.5,0.5c2,0.1,0.5-1.8,0.5-1.8c1.6,0,1.9-1.4,1.9-1.4l2,0.5   c-0.1,0.5,0.2,1.2,0.2,1.2c0.5,0,0.5,1.9,0.5,1.9c0.4,1.9,2.8,1.4,2.8,1.4c1.5,0.3-0.2-1.8-0.2-1.8c-1.2-0.4-1.2-3.5-1.2-3.5   l-0.2-4.7c0.4,0.1,1.8-1.2,1.8-1.2l0.9,4.6c-0.5,0.4,0.3,1.1,0.3,1.1c0,0.5,0.5,2.4,0.5,2.4c1.4,1,2.8,0.1,2.8,0.1   c1.2,0.1-1.3-1.5-1.3-1.5C31.9,56.4,32.6,48,32.6,48c1.8-2.8-0.5-6.7-0.5-6.7c0.6-0.3,0.3-1.6,0.3-1.6c-0.8-2.5,0.2-3.5,0.2-3.5   c0.5,0,1.7-0.9,1.7-0.9c0.8,0,1.5-0.9,1.5-0.9C36.7,33.8,35.7,33.2,35.7,33.2z M25.6,56.4c0,0,0.2-0.7,0.8-1.1l0.2,1.3   C26.6,56.6,26,56.8,25.6,56.4z"></path><path d="M45.4,45.4l8.2,0.1c0,0,0,0,0.1,0c2.2,0,5.5-2.3,5.5-6V21.3c0-3.3-2.6-5.9-5.9-5.9c-3.3,0-5.9,2.6-5.9,5.9   V23c1.5-0.8,2.8-1.9,3.8-3.1c1.1-1.2,2.9-1.4,4.2-0.3c1.2,1.1,1.4,2.9,0.3,4.2c-2,2.4-5,4.5-8.3,5.7v10.1L42,39.4   c-0.9,0-1.7,0.4-2.3,1c-0.6,0.7-0.8,1.5-0.7,2.4l2,13.9c0.2,1.6,1.7,2.7,3.3,2.5c1.6-0.2,2.7-1.7,2.5-3.3L45.4,45.4z"></path><path d="M53.4,14.4c3.1,0,5.6-2.5,5.6-5.6c0-3.1-2.5-5.6-5.6-5.6c-3.1,0-5.6,2.5-5.6,5.6   C47.8,11.9,50.3,14.4,53.4,14.4z"></path><path d="M54.9,23c0.7-0.8,0.6-2.1-0.2-2.8c-0.8-0.7-2.1-0.6-2.8,0.2c0,0,0,0,0,0c-3.2,3.6-8.2,5.9-12.8,4.6   c-1.1-0.3-2.1,0.3-2.4,1.4c-0.3,1,0.3,2.1,1.4,2.4C44.3,30.6,50.9,27.7,54.9,23z"></path><path d="M39.4,24.2c2.3,0.6,4.7,0.3,6.9-0.7c0-1.8-0.1-2.6,0.2-3.8c-2.5,1.3-5.3,1.8-8.2,1.1   c-1.1-0.3-2.1,0.3-2.4,1.4c-0.3,1,0.3,2,1.2,2.3C37.9,24.1,38.8,24,39.4,24.2z"></path></g></svg>