<svg height='100px' width='100px'  fill="#000000" xmlns="http://www.w3.org/2000/svg" xmlns:xlink="http://www.w3.org/1999/xlink" version="1.1" x="0px" y="0px" viewBox="0 0 64 64" style="enable-background:new 0 0 64 64;" xml:space="preserve"><g><path d="M14,32.998c0,0.375,0.15,0.738,0.413,1.001L15,34.586L25.586,24L24,22.414l-9.587,9.587C14.15,32.264,14,32.627,14,32.998z   "></path><path d="M14.492,14.316C14.629,14.726,15.011,15,15.441,15h0.864c0.491,0,0.906-0.352,0.986-0.835l0.696-4.179   C17.996,9.94,18,9.894,18,9.847C18,9.38,17.62,9,17.153,9h-3.433C13.323,9,13,9.323,13,9.721c0,0.076,0.013,0.156,0.038,0.23   L14.492,14.316z"></path><path d="M56.951,14.382c-1.257-0.319-1.974-0.387-2.354-0.387c-0.329,0-0.598,0.273-0.598,0.609c0,0.354,0.218,0.619,0.519,0.68   l0.634,0.127C57.381,15.856,59,17.83,59,20.104c0,2.194-1.345,4.065-3.346,4.732c-2.332,0.777-4.712,1.164-7.122,1.165   l-18.655,0.006c-0.003,0-0.006,0-0.008,0c-1.018,0-2.015-0.168-2.978-0.484l-9.828,9.828c1.095,2.6,2.642,4.94,4.644,6.942   L22,42.586v16.032l-1.53,0.765C20.18,59.527,20,59.819,20,60.144C20,60.619,20.381,61,20.85,61H25c0.552,0,1-0.448,1-1v-9.415   c0-1.813,0.694-3.534,1.954-4.849c0.234-0.244,0.482-0.491,0.737-0.745c1.406-1.399,2.86-2.847,3.328-5.188l1.961,0.393   c-0.308,1.542-0.96,2.769-1.719,3.804h3.616c1.994,0,3.987-0.192,5.946-0.556c-1.207-1.464-1.867-3.315-1.846-5.245l0.002-0.183   c0.016-1.522,0.471-2.996,1.316-4.264l0.873-1.308l1.664,1.109l-0.873,1.309c-0.63,0.943-0.969,2.041-0.98,3.175l-0.002,0.183   c-0.016,1.516,0.518,2.97,1.502,4.094l0.09,0.103c3.518,4.019,5.445,9.166,5.434,14.501L49,58.618l-1.53,0.765   C47.18,59.527,47,59.819,47,60.144C47,60.619,47.381,61,47.85,61H52c0.552,0,1-0.448,1-1v-8.655c0-1.613,0.146-3.238,0.435-4.83   l1.483-8.149C54.973,38.063,55,37.753,55,37.447c0-1.496-0.282-2.959-0.838-4.349l-1.484-3.711l1.474-0.492   c3.15-1.05,5.577-3.584,6.489-6.777c0.24-0.842,0.37-1.712,0.385-2.584C61.013,17.117,59.337,14.989,56.951,14.382z"></path><path d="M20,43.409c-0.846-0.875-1.593-1.823-2.288-2.805c-2.258,2.964-6.91,6.365-9.732,8.284C7.366,49.305,7,49.999,7,50.746   C7,51.989,8.011,53,9.254,53H10c0.552,0,1-0.448,1-1s-0.448-1-1-1H9v-2h1c0.847,0,1.609,0.356,2.155,0.922   c2.211-1.053,6.344-3.289,7.845-5.255V43.409z"></path><path d="M13.738,25l1.141,3.706l6.977-6.977c-0.25-0.366-0.483-0.743-0.682-1.141l-2.429-4.859C18.2,16.502,17.311,17,16.306,17   h-0.864c-1.293,0-2.437-0.824-2.846-2.051L11.279,11h-0.478c-0.895,0-1.736,0.349-2.369,0.981   c-0.365,0.365-0.645,0.818-0.808,1.308l-0.85,2.548l-3.019,0.754C3.312,16.703,3,17.102,3,17.562V20c0,0.552,0.448,1,1,1h5v2H5.184   C5.598,24.161,6.698,25,8,25H13.738z M10,13c0.552,0,1,0.448,1,1c0,0.552-0.448,1-1,1c-0.552,0-1-0.448-1-1   C9,13.448,9.448,13,10,13z"></path><rect x="21.901" y="10.397" transform="matrix(0.7071 -0.7071 0.7071 0.7071 2.6624 29.2205)" width="29.406" height="2"></rect></g></svg>